<?xml version="1.0" encoding="UTF-8" standalone="no"?>
<svg
   xmlns:dc="http://purl.org/dc/elements/1.1/"
   xmlns:cc="http://creativecommons.org/ns#"
   xmlns:rdf="http://www.w3.org/1999/02/22-rdf-syntax-ns#"
   xmlns:svg="http://www.w3.org/2000/svg"
   xmlns="http://www.w3.org/2000/svg"
   xmlns:sodipodi="http://sodipodi.sourceforge.net/DTD/sodipodi-0.dtd"
   xmlns:inkscape="http://www.inkscape.org/namespaces/inkscape"
   inkscape:version="1.0 (1.0+r73+1)"
   sodipodi:docname="github-avtar.svg"
   xml:space="preserve"
   style="enable-background:new 0 0 1000 1000;"
   viewBox="0 0 1000 1000"
   y="0px"
   x="0px"
   id="Layer_1"
   version="1.1"><metadata
   id="metadata986"><rdf:RDF><cc:Work
       rdf:about=""><dc:format>image/svg+xml</dc:format><dc:type
         rdf:resource="http://purl.org/dc/dcmitype/StillImage" /><dc:title></dc:title></cc:Work></rdf:RDF></metadata><defs
   id="defs984" /><sodipodi:namedview
   inkscape:current-layer="Layer_1"
   inkscape:window-maximized="1"
   inkscape:window-y="27"
   inkscape:window-x="67"
   inkscape:cy="351.30112"
   inkscape:cx="500"
   inkscape:zoom="0.538"
   showgrid="false"
   id="namedview982"
   inkscape:window-height="713"
   inkscape:window-width="1299"
   inkscape:pageshadow="2"
   inkscape:pageopacity="0"
   guidetolerance="10"
   gridtolerance="10"
   objecttolerance="10"
   borderopacity="1"
   bordercolor="#666666"
   pagecolor="#ffffff" />
<style
   id="style517"
   type="text/css">
	.st0{fill:#FFFFFF;}
	.st1{fill:#E4E8EC;}
	.st2{fill:#606060;}
	.st3{fill:#FF901B;}
	.st4{fill:#00E7E9;}
	.st5{fill:#00D1C5;}
	.st6{fill:#FFF4E4;}
	.st7{fill:none;stroke:#171819;stroke-width:6;stroke-linecap:round;stroke-linejoin:round;stroke-miterlimit:10;}
	.st8{fill:#FFDEC5;}
	.st9{fill:#EFB58E;}
	.st10{fill:#171819;}
	.st11{fill:#B0AEFA;}
	.st12{fill:#DCDBFF;}
	.st13{fill:#FF9472;}
	.st14{fill:#EF7756;}
	.st15{fill:#FF4F7C;}
</style>
<rect
   id="rect519"
   height="1000"
   width="1000"
   class="st0" />
<ellipse
   id="ellipse521"
   ry="45.2"
   rx="389.7"
   cy="787.6"
   cx="514.9"
   class="st1" />

<path
   id="path841"
   d="M597,792H252.1c-27.8,0-50.4-22.6-50.4-50.4v-122c0-14.6,6.4-28.5,17.6-38l78-66.5h204.2l78,66.5  c11.1,9.5,17.6,23.4,17.6,38V792z"
   class="st3" />
<path
   id="path843"
   d="M597,792H252.1c-27.8,0-50.4-22.6-50.4-50.4v-122c0-14.6,6.4-28.5,17.6-38l78-66.5h204.2l78,66.5  c11.1,9.5,17.6,23.4,17.6,38V792z"
   class="st4" />
<path
   id="path845"
   d="M201.7,716.1v25.5c0,27.8,22.6,50.4,50.4,50.4H597v-25.5H252.1C224.3,766.5,201.7,743.9,201.7,716.1z"
   class="st5" />
<path
   id="path847"
   d="M579.4,581.5l-78-66.5H471l78,66.5c11.1,9.5,17.6,23.4,17.6,38V792H597V619.6C597,604.9,590.6,591,579.4,581.5z  "
   class="st5" />
<polygon
   id="polygon849"
   points="329,536 399,586 469,536 "
   class="st6" />
<path
   id="path851"
   d="M597,792H252.1c-27.8,0-50.4-22.6-50.4-50.4v-122c0-14.6,6.4-28.5,17.6-38l78-66.5h204.2l78,66.5  c11.1,9.5,17.6,23.4,17.6,38V792z"
   class="st7" />
<rect
   id="rect853"
   height="71.6"
   width="78.4"
   class="st8"
   y="720.4"
   x="326.3" />
<rect
   id="rect855"
   height="15.8"
   width="78.4"
   class="st9"
   y="776.2"
   x="326.3" />
<rect
   id="rect857"
   height="71.6"
   width="78.4"
   class="st7"
   y="720.4"
   x="326.3" />
<path
   id="path859"
   d="M271,538l66,92c0,0,17-52,62-44c-65-48-70-50-70-50"
   class="st7" />
<path
   id="path861"
   d="M527.4,536.9l-66,92c0,0-17-52-62-44c65-48,70-50,70-50"
   class="st7" />
<line
   id="line863"
   y2="753.9"
   x2="399"
   y1="586"
   x1="399"
   class="st7" />
<circle
   id="circle865"
   r="6.5"
   cy="634.5"
   cx="423.5"
   class="st10" />
<circle
   id="circle867"
   r="6.5"
   cy="676.5"
   cx="423.5"
   class="st10" />
<g
   id="g887">
	<g
   id="g873">
		<path
   id="path869"
   d="M652.8,793.6H390.2c-10.1,0-18.2-8.2-18.2-18.2v-3.3c0-10.1,8.2-18.2,18.2-18.2H671v21.5    C671,785.5,662.8,793.6,652.8,793.6z"
   class="st11" />
		<path
   id="path871"
   d="M652.8,793.6H390.2c-10.1,0-18.2-8.2-18.2-18.2v-3.3c0-10.1,8.2-18.2,18.2-18.2H671v21.5    C671,785.5,662.8,793.6,652.8,793.6z"
   class="st7" />
	</g>
	<path
   id="path875"
   d="M845.6,793.7H594.8c-11.5,0-20.1-10.7-17.6-21.9l47.1-210.4c3.9-17.4,18.4-29.7,35-29.7h235.2   c19.4,0,33.7,19.6,29.2,39.9L880.6,764C876.7,781.4,862.2,793.7,845.6,793.7z"
   class="st6" />
	<path
   id="path877"
   d="M845.6,793.7H594.8c-11.5,0-20.1-10.7-17.6-21.9l47.1-210.4c3.9-17.4,18.4-29.7,35-29.7h235.2   c19.4,0,33.7,19.6,29.2,39.9L880.6,764C876.7,781.4,862.2,793.7,845.6,793.7z"
   class="st12" />
	<path
   id="path879"
   d="M857.6,784.5H606.7c-11.5,0-20.1-10.7-17.6-21.9l47.1-210.4c1.5-6.6,4.5-12.5,8.6-17.3   c-10.1,4.8-17.8,14.4-20.5,26.4l-47.1,210.4c-2.5,11.2,6,21.9,17.6,21.9h250.8c10.3,0,19.8-4.7,26.4-12.4   C867.6,783.3,862.7,784.5,857.6,784.5z"
   class="st11" />
	<path
   id="path881"
   d="M597.4,771.7l47.1-210.4c3.9-17.4,18.4-29.7,35-29.7h-20.2c-16.6,0-31.1,12.3-35,29.7l-47.1,210.4   c-2.5,11.2,6,21.9,17.6,21.9H615C603.5,793.7,594.9,783,597.4,771.7z"
   class="st11" />
	<path
   id="path883"
   d="M845.6,793.7H594.8c-11.5,0-20.1-10.7-17.6-21.9l47.1-210.4c3.9-17.4,18.4-29.7,35-29.7h235.2   c19.4,0,33.7,19.6,29.2,39.9L880.6,764C876.7,781.4,862.2,793.7,845.6,793.7z"
   class="st7" />
	<path
   id="path885"
   d="M771.5,645.4c0.1-1.6,0.5-3.2,0.9-4.7c-1.8-0.5-3.7-0.7-5.6-0.6c-13.2,0.5-26,12.8-28.6,27.6s6,26.4,19.2,26   c12.6-0.4,24.8-11.7,28.2-25.5C776.5,664.9,770.5,655.8,771.5,645.4z"
   class="st0" />
</g>
<g
   id="g893">
	<path
   id="path889"
   d="M451.5,732.7H466c5.9,0,10.6,4.8,10.6,10.6l0,0c0,5.9-4.8,10.6-10.6,10.6h-31.4"
   class="st8" />
	<path
   id="path891"
   d="M447,732.7h19c5.9,0,10.6,4.8,10.6,10.6l0,0c0,5.9-4.8,10.6-10.6,10.6h-31.4"
   class="st7" />
</g>
<g
   id="g899">
	<path
   id="path895"
   d="M390,720.4h51.4c9.3,0,16.8,7.5,16.8,16.8v0c0,9.3-7.5,16.8-16.8,16.8h-51.2"
   class="st8" />
	<path
   id="path897"
   d="M390,720.4h51.4c9.3,0,16.8,7.5,16.8,16.8v0c0,9.3-7.5,16.8-16.8,16.8h-51.2"
   class="st7" />
</g>
<path
   id="path901"
   d="M400,732.7h21.6c5.9,0,10.6,4.8,10.6,10.6l0,0c0,5.9-4.8,10.6-10.6,10.6h-31.4"
   class="st7" />
<polyline
   id="polyline903"
   points="284.8,704.5 326.3,704.5 326.3,792 "
   class="st7" />
<g
   id="g965">
	<g
   id="g935">
		<path
   id="path905"
   d="M400.3,549h-5.1c-71.1,0-128.7-38.6-128.7-109.7V279.2H529v160.1C529,510.4,471.4,549,400.3,549z"
   class="st8" />
		<path
   id="path907"
   d="M267,312.9c0,0,23.2,40,86.9,42.3c97.4,3.4,135.9-46.9,135.9-46.9L267,312.9z"
   class="st9" />
		<path
   id="path909"
   d="M400.3,531.7h-5.1c-71.1,0-128.7-34.6-128.7-105.7v13.3c0,71.1,57.6,109.7,128.7,109.7h5.1    c71.1,0,128.7-38.6,128.7-109.7V426C529,497.1,471.4,531.7,400.3,531.7z"
   class="st9" />
		<path
   id="path911"
   d="M400.3,549h-5.1c-71.1,0-128.7-38.6-128.7-109.7V279.2H529v160.1C529,510.4,471.4,549,400.3,549z"
   class="st7" />
		<path
   id="path913"
   d="M302,358c-13,45-35,35-35,35V273h37C304,273,310.3,329.2,302,358z"
   class="st13" />
		<path
   id="path915"
   d="M304.8,344c1.3-10,1.6-21.4,1.5-31.9l-39.3,0.8C267,312.9,277.8,331.5,304.8,344z"
   class="st14" />
		<path
   id="path917"
   d="M302,358c-13,45-35,35-35,35V273h37C304,273,310.3,329.2,302,358z"
   class="st7" />
		<g
   id="g933">
			<path
   id="path919"
   d="M496.6,213.3c-19-17.2-47.3-32.7-86.8-31.6c-0.5,7.8,5,24.7,15,33c-37.6-35-118.5-35.3-144.5-9.1     c3.8,12.1,14.5,27.6,31.1,35.6c-47.3-10.9-80.3,12.6-83,21c8.3,20.7,27.1,42,38.6,50.7c38.8,29.1,145.9,40.4,212.3,1.9     c3.8-2.2,7.3-4.4,10.5-6.5c-0.4,16.9,0.3,36.3,4.2,49.8c13,45,35,35,35,35V287C529,259,517.4,232.1,496.6,213.3z"
   class="st13" />
			<g
   id="g927">
				<path
   id="path921"
   d="M424.8,214.8L424.8,214.8c-2.4-3.4-8.8-6.2-19.1-13.3c-41.1-21.3-103.2-18.3-125.4,4.1      c0.5,1.7,1.2,3.5,2,5.3c29.6-19.1,92.9-20.4,129.2,6.8C416.2,221.2,424.8,220.7,424.8,214.8z"
   class="st14" />
				<path
   id="path923"
   d="M311.8,242.8c0-0.7-0.2-1.2-0.4-1.6c-1.9-0.4-8.8-1.1-23.4-2.8c-34.5-0.3-57.4,16.9-59.6,23.9      c0.4,1.1,0.9,2.2,1.4,3.3c11.6-9.3,39.8-21.7,73.8-15.6C308,250.7,312.1,247.3,311.8,242.8z"
   class="st14" />
				<path
   id="path925"
   d="M496.6,213.3c-19-17.2-47.3-32.7-86.8-31.6c-0.2,2.8,0.4,6.7,1.7,11c28.3,0.6,52.9,10.8,67.3,25.6      c28,28.8,11.4,71.4-0.9,86.6C463,323.3,454,326.4,454,326.4s29.7-8.5,35.7-18.2c-5,26.2,7.4,81.7,34.1,85.7      c3.2,0,5.2-0.9,5.2-0.9V287C529,259,517.4,232.1,496.6,213.3z"
   class="st14" />
			</g>
			<path
   id="path929"
   d="M507.2,224c-18.5-20.9-49.8-43.7-97.4-42.3c-0.5,7.8,5,24.7,15,33c-37.6-35-118.5-35.3-144.5-9.1     c3.8,12.1,14.5,27.6,31.1,35.6c-47.3-10.9-80.3,12.6-83,21c8.3,20.7,27.1,42,38.6,50.7c38.8,29.1,145.9,40.4,212.3,1.9     c3.8-2.2,7.3-4.4,10.5-6.5c-0.4,16.9,0.3,36.3,4.2,49.8c13,45,35,35,35,35V282C529,260.7,521.4,240,507.2,224z"
   class="st7" />
			<path
   id="path931"
   d="M509.3,289.8c0,0-11.4,12.5-19.6,18.5c-8.5,6.2-21,13.9-37.9,19"
   class="st7" />
		</g>
	</g>
	<path
   id="path937"
   d="M333.3,395.3c12.2-2.1,24.8-2.1,37,0"
   class="st7" />
	<circle
   id="circle939"
   r="9.2"
   cy="409.9"
   cx="359.7"
   class="st10" />
	<path
   id="path941"
   d="M427.7,395.3c12.2-2.1,24.8-2.1,37,0"
   class="st7" />
	<circle
   id="circle943"
   r="9.2"
   cy="409.9"
   cx="454"
   class="st10" />
	<path
   id="path945"
   d="M382.8,448.4c3.3,5.7,9.5,9.5,16.6,9.5c7,0,13.2-3.8,16.6-9.5"
   class="st7" />
	<g
   id="g951">
		<path
   id="path947"
   d="M434.2,481c0,15.2-15.8,27.4-35.2,27.4s-35.2-12.3-35.2-27.4H434.2z"
   class="st0" />
		<path
   id="path949"
   d="M434.2,481c0,15.2-15.8,27.4-35.2,27.4s-35.2-12.3-35.2-27.4H434.2z"
   class="st7" />
	</g>
	<g
   id="g957">
		<path
   id="path953"
   d="M266.5,355.2c0,0-23.4-1.7-23.4,22c0,25.3,5.9,40.9,23.4,41.5V355.2z"
   class="st8" />
		<path
   id="path955"
   d="M266.5,355.2c0,0-23.4-1.7-23.4,22c0,25.3,5.9,40.9,23.4,41.5V355.2z"
   class="st7" />
	</g>
	<g
   id="g963">
		<path
   id="path959"
   d="M529,355.2c0,0,23.4-1.7,23.4,22c0,25.3-5.9,40.9-23.4,41.5V355.2z"
   class="st8" />
		<path
   id="path961"
   d="M529,355.2c0,0,23.4-1.7,23.4,22c0,25.3-5.9,40.9-23.4,41.5V355.2z"
   class="st7" />
	</g>
</g>

</svg>
